HIERARCHY
ROOT Hips
{
	OFFSET 0.00000 0.00000 0.00000
	CHANNELS 6 Xposition Yposition Zposition Zrotation Yrotation Xrotation 
	JOINT LHipJoint
	{
		OFFSET 0 0 0
		CHANNELS 3 Zrotation Yrotation Xrotation
		JOINT LeftHip
		{
			OFFSET 1.57358 -1.76629 0.73362
			CHANNELS 3 Zrotation Yrotation Xrotation
			JOINT LeftKnee
			{
				OFFSET 2.40600 -6.61045 0.00000
				CHANNELS 3 Zrotation Yrotation Xrotation
				JOINT LeftAnkle
				{
					OFFSET 2.66168 -7.31291 0.00000
					CHANNELS 3 Zrotation Yrotation Xrotation
					JOINT LeftToe
					{
						OFFSET 0.20870 -0.57341 2.12506
						CHANNELS 3 Zrotation Yrotation Xrotation
						End Site
						{
							OFFSET 0.00000 -0.00000 1.10557
						}
					}
				}
			}
		}
	}
	JOINT RHipJoint
	{
		OFFSET 0 0 0
		CHANNELS 3 Zrotation Yrotation Xrotation
		JOINT RightHip
		{
			OFFSET -1.49299 -1.76629 0.73362
			CHANNELS 3 Zrotation Yrotation Xrotation
			JOINT RightKnee
			{
				OFFSET -2.43663 -6.69460 0.00000
				CHANNELS 3 Zrotation Yrotation Xrotation
				JOINT RightAnkle
				{
					OFFSET -2.62959 -7.22474 0.00000
					CHANNELS 3 Zrotation Yrotation Xrotation
					JOINT RightToe
					{
						OFFSET -0.25784 -0.70841 2.21862
						CHANNELS 3 Zrotation Yrotation Xrotation
						End Site
						{
							OFFSET -0.00000 -0.00000 1.16452
						}
					}
				}
			}
		}
	}
	JOINT lowerback
	{
		OFFSET 0 0 0
		CHANNELS 3 Zrotation Yrotation Xrotation
		JOINT Chest
		{
			OFFSET -0.00034 2.12399 -0.25450
			CHANNELS 3 Zrotation Yrotation Xrotation
			JOINT Chest2
			{
				OFFSET 0.05594 2.14379 -0.03318
				CHANNELS 3 Zrotation Yrotation Xrotation
				JOINT lowerneck
				{
					OFFSET 0 0 0
					CHANNELS 3 Zrotation Yrotation Xrotation
					JOINT Neck
					{
						OFFSET -0.09835 1.62725 0.24211
						CHANNELS 3 Zrotation Yrotation Xrotation
						JOINT Head
						{
							OFFSET 0.10849 1.66041 -0.22648
							CHANNELS 3 Zrotation Yrotation Xrotation
							End Site
							{
								OFFSET 0.04385 1.68267 -0.10541
							}
						}
					}
				}
				JOINT LeftCollar
				{
					OFFSET 0 0 0
					CHANNELS 3 Zrotation Yrotation Xrotation
					JOINT LeftShoulder
					{
						OFFSET 3.29108 0.79398 -0.68179
CHANNELS 3 Zrotation Xrotation Yrotation
						JOINT LeftElbow
						{
OFFSET 0 -5.153100 -0.000000
CHANNELS 3 Zrotation Xrotation Yrotation
							JOINT LeftWrist
							{
OFFSET 0 -3.751380 -0.000000
CHANNELS 3 Zrotation Xrotation Yrotation
								JOINT lhand
								{
									OFFSET 0 0 0
CHANNELS 3 Zrotation Xrotation Yrotation
									JOINT LFingers
									{
OFFSET 0 -0.529170 0.000000
CHANNELS 3 Zrotation Xrotation Yrotation
										End Site
										{
OFFSET 0 -0.426630 0.000000
										}
									}
								}
								JOINT LThumb
								{
OFFSET 0 0.000000 0.000000
CHANNELS 3 Zrotation Xrotation Yrotation
									End Site
									{
OFFSET 0 -0.433150 0.433150
									}
								}
							}
						}
					}
				}
				JOINT RightCollar
				{
					OFFSET 0 0 0
					CHANNELS 3 Zrotation Yrotation Xrotation
					JOINT RightShoulder
					{
						OFFSET -3.07414 1.06285 -0.44338
CHANNELS 3 Zrotation Xrotation Yrotation
						JOINT RightElbow
						{
OFFSET 0 -5.296130 0.000000
CHANNELS 3 Zrotation Xrotation Yrotation
							JOINT RightWrist
							{
OFFSET 0 -3.761440 -0.000000
CHANNELS 3 Zrotation Xrotation Yrotation
								JOINT rhand
								{
									OFFSET 0 0 0
CHANNELS 3 Zrotation Xrotation Yrotation
									JOINT RFingers
									{
OFFSET 0 -0.747320 0.000000
CHANNELS 3 Zrotation Xrotation Yrotation
										End Site
										{
OFFSET 0 -0.602510 0.000000
										}
									}
								}
								JOINT RThumb
								{
OFFSET 0 0.000000 0.000000
CHANNELS 3 Zrotation Xrotation Yrotation
									End Site
									{
OFFSET 0 -0.611710 0.611710
									}
								}
							}
						}
					}
				}
			}
		}
	}
}
MOTION
Frames: 9
Frame Time: 0.008333333333333333
1.080400 17.828400 -16.993700 0.302900 -2.997300 6.344700 0.000000 0.000000 0.000000 -21.134900 -5.706700 -9.836500 1.169300 6.864000 19.313100 0.413700 2.790700 -13.495500 0.022300 0.964700 2.651600 0.000000 0.000000 0.000000 20.854100 9.612600 -8.407100 -1.275500 -7.157700 20.183300 -0.333300 -4.938000 -13.849500 -0.131700 -2.338900 6.443300 -1.799900 -0.669600 5.470100 2.082100 -0.938200 -0.631000 3.245400 -0.409000 -3.657400 -10.520000 -5.445800 -17.104900 7.146700 -6.226400 17.110800 3.357600 -2.900600 8.725700 -0.000000 -0.000000 0.000000 1.594900 1.280300 -23.041300 17.367600 -27.339800 4.254800 17.964800 14.855900 -21.424900 0.000000 0.000000 0.000000 -7.125000 0.000000 0.000000 -10.988400 52.066700 1.931000 -0.000000 -0.000000 0.000000 -3.696600 0.827800 21.493000 -18.287600 -28.523800 -4.685700 -10.075900 0.680900 -14.587800 0.000000 0.000000 0.000000 7.125000 0.000000 -0.000000 11.825500 15.381700 8.449700
1.080878 17.828400 -16.994929 0.332261 -2.921304 6.358629 0.000000 0.000000 0.000000 -21.152653 -5.715303 -9.862993 1.168685 6.862361 19.308252 0.416841 2.685889 -13.476996 0.024895 1.018505 2.799769 0.000000 0.000000 0.000000 20.824261 9.549372 -8.452370 -1.277344 -7.162548 20.197844 -0.329886 -4.966268 -13.822188 -0.127398 -2.300390 6.336646 -1.808230 -0.690426 5.485668 2.074862 -0.966878 -0.647319 3.245605 -0.422656 -3.681093 -10.536729 -5.435490 -17.140679 7.141920 -6.205096 17.157504 3.361492 -2.891724 8.746389 0.000000 0.000000 0.000000 1.570387 1.270263 -22.990294 17.335098 -27.297398 4.239847 19.036598 15.050568 -20.288781 0.000000 0.000000 0.000000 -7.125000 0.000000 0.000000 -9.534982 51.090289 1.458499 0.000000 0.000000 0.000000 -3.688953 0.846236 21.441517 -18.264794 -28.494849 -4.674843 -10.217309 0.716884 -14.747303 0.000000 0.000000 0.000000 7.125000 0.000000 0.000000 11.726357 15.214071 8.418769
1.081210 17.828985 -16.995756 0.343999 -2.881613 6.371352 0.000000 0.000000 0.000000 -21.156513 -5.691294 -9.912300 1.171544 6.870411 19.331995 0.420896 2.591462 -13.478637 0.026392 1.048948 2.883590 0.000000 0.000000 0.000000 20.811168 9.528190 -8.476800 -1.278200 -7.164837 20.204746 -0.326618 -4.992269 -13.795497 -0.125766 -2.285900 6.296460 -1.808078 -0.704926 5.480945 2.072085 -0.986233 -0.649379 3.244201 -0.432327 -3.679231 -10.550679 -5.434868 -17.173423 7.135861 -6.196626 17.177226 3.362496 -2.888697 8.758450 0.000000 0.000000 0.000000 1.552602 1.260006 -22.948246 17.316454 -27.273057 4.231291 19.570257 15.164947 -19.800230 0.000000 0.000000 0.000000 -7.125000 0.000000 0.000000 -8.837608 50.682876 1.245910 0.000000 0.000000 0.000000 -3.691250 0.846939 21.410946 -18.232081 -28.453285 -4.659270 -10.318025 0.754257 -14.984864 0.000000 0.000000 0.000000 7.125000 0.000000 0.000000 11.653245 14.971603 8.425861
1.081444 17.829879 -16.996152 0.340395 -2.874673 6.381517 0.000000 0.000000 0.000000 -21.149529 -5.638130 -9.978451 1.177508 6.887138 19.381356 0.425540 2.509592 -13.496937 0.026832 1.057112 2.906046 0.000000 0.000000 0.000000 20.812945 9.539694 -8.481436 -1.278011 -7.164396 20.203489 -0.323564 -5.014222 -13.768871 -0.125969 -2.287835 6.301729 -1.799318 -0.713106 5.460365 2.071536 -0.996380 -0.639635 3.238937 -0.437998 -3.656900 -10.560964 -5.442047 -17.205215 7.131538 -6.199444 17.177876 3.361773 -2.890435 8.764859 0.000000 0.000000 0.000000 1.544899 1.252396 -22.920903 17.312256 -27.267556 4.229396 19.625963 15.206040 -19.887128 0.000000 0.000000 0.000000 -7.125000 0.000000 0.000000 -8.811528 50.781276 1.263787 0.000000 0.000000 0.000000 -3.699105 0.834384 21.398708 -18.191976 -28.402302 -4.640182 -10.382523 0.787495 -15.283237 0.000000 0.000000 0.000000 7.125000 0.000000 0.000000 11.603531 14.671108 8.464741
1.082058 17.828172 -16.995469 0.336093 -2.884164 6.371890 0.000000 0.000000 0.000000 -21.158406 -5.573673 -10.005968 1.184678 6.907417 19.441374 0.427521 2.474223 -13.504517 0.025876 1.038950 2.855929 0.000000 0.000000 0.000000 20.819227 9.501525 -8.463615 -1.275348 -7.157295 20.182186 -0.321653 -5.008896 -13.736028 -0.119892 -2.231913 6.147006 -1.774191 -0.710375 5.462686 2.049482 -0.991874 -0.637314 3.201383 -0.436564 -3.656900 -10.554819 -5.441296 -17.259020 7.164518 -6.204292 17.235369 3.371264 -2.888114 8.795312 0.000000 0.000000 0.000000 1.592832 1.281962 -22.984403 17.339841 -27.303608 4.242028 19.536583 15.199553 -20.152671 0.000000 0.000000 0.000000 -7.125000 0.000000 0.000000 -8.986804 51.039035 1.346816 0.000000 0.000000 0.000000 -3.666740 0.849679 21.388944 -18.167669 -28.371303 -4.628642 -10.435031 0.750760 -15.491083 0.000000 0.000000 0.000000 7.125000 0.000000 0.000000 11.564474 14.461077 8.487888
1.082755 17.825927 -16.995159 0.336926 -2.910050 6.365367 0.000000 0.000000 0.000000 -21.173368 -5.544118 -10.035390 1.193131 6.931133 19.511495 0.426644 2.468994 -13.489035 0.025086 1.023023 2.812104 0.000000 0.000000 0.000000 20.819547 9.466627 -8.449479 -1.271029 -7.145598 20.147427 -0.320031 -4.990115 -13.696354 -0.104914 -2.082960 5.735174 -1.786492 -0.700316 5.456023 2.053966 -0.979087 -0.636152 3.211773 -0.429997 -3.652636 -10.599433 -5.444602 -17.270760 7.192074 -6.202018 17.243716 3.388290 -2.886993 8.802497 0.000000 0.000000 0.000000 1.586031 1.306683 -23.012629 17.366391 -27.338253 4.254204 19.491877 15.189713 -20.174809 0.000000 0.000000 0.000000 -7.125000 0.000000 0.000000 -9.037707 51.054383 1.357557 0.000000 0.000000 0.000000 -3.684803 0.859219 21.401495 -18.151848 -28.351151 -4.621119 -10.516727 0.682974 -15.620761 0.000000 0.000000 0.000000 7.125000 0.000000 0.000000 11.507573 14.326481 8.478038
1.083497 17.823293 -16.995158 0.333364 -2.944595 6.360019 0.000000 0.000000 0.000000 -21.180643 -5.542460 -10.065292 1.202204 6.956469 19.586392 0.424639 2.482781 -13.468632 0.024694 1.014541 2.788845 0.000000 0.000000 0.000000 20.827170 9.433571 -8.436340 -1.265577 -7.130783 20.103496 -0.317193 -4.976096 -13.642359 -0.081987 -1.834755 5.049511 -1.816796 -0.686477 5.442734 2.078642 -0.961709 -0.633951 3.252832 -0.420648 -3.643279 -10.674414 -5.454009 -17.252171 7.211954 -6.199712 17.213178 3.407691 -2.889072 8.791885 0.000000 0.000000 0.000000 1.542709 1.322866 -23.011729 17.388619 -27.367219 4.264410 19.497097 15.185345 -20.003715 0.000000 0.000000 0.000000 -7.125000 0.000000 0.000000 -8.976186 50.879574 1.309855 0.000000 0.000000 0.000000 -3.734287 0.863086 21.424129 -18.142419 -28.339154 -4.616629 -10.603294 0.611209 -15.682836 0.000000 0.000000 0.000000 7.125000 0.000000 0.000000 11.448752 14.258616 8.449767
1.084180 17.820426 -16.995568 0.283041 -2.967128 6.349572 0.000000 0.000000 0.000000 -21.117484 -5.572504 -10.090624 1.209988 6.978114 19.650508 0.427029 2.493228 -13.509054 0.026059 1.042331 2.865319 0.000000 0.000000 0.000000 20.902416 9.398817 -8.414764 -1.259773 -7.115146 20.056929 -0.305858 -5.043762 -13.528535 -0.045935 -1.351398 3.716813 -1.809012 -0.678556 5.424640 2.121249 -0.949077 -0.620909 3.291137 -0.414639 -3.619859 -10.733750 -5.484394 -17.215300 7.206697 -6.225180 17.140391 3.411856 -2.905801 8.764982 0.000000 0.000000 0.000000 1.493411 1.306411 -22.973151 17.388756 -27.367356 4.264478 19.628947 15.227269 -19.619501 0.000000 0.000000 0.000000 -7.125000 0.000000 0.000000 -8.722934 50.506353 1.192481 0.000000 0.000000 0.000000 -3.775802 0.855234 21.420100 -18.138322 -28.333897 -4.614717 -10.604659 0.637360 -15.642891 0.000000 0.000000 0.000000 7.125000 0.000000 0.000000 11.448410 14.298219 8.439661
1.084816 17.818344 -16.996440 0.250430 -2.964504 6.320581 0.000000 0.000000 0.000000 -21.073608 -5.631033 -10.071840 1.215968 6.994811 19.699917 0.432424 2.523375 -13.602194 0.028535 1.089590 2.995297 0.000000 0.000000 0.000000 20.957128 9.354906 -8.368447 -1.253229 -7.097337 20.003980 -0.294755 -5.104953 -13.411660 -0.028242 -1.077201 2.961375 -1.782731 -0.672347 5.431887 2.131902 -0.938988 -0.578086 3.286020 -0.411128 -3.580484 -10.761501 -5.506085 -17.272534 7.237602 -6.247227 17.124530 3.423050 -2.913466 8.773965 0.000000 0.000000 0.000000 1.488229 1.211526 -22.961440 17.344776 -27.309965 4.244338 19.729397 15.211019 -19.233853 0.000000 0.000000 0.000000 -7.125000 0.000000 0.000000 -8.504134 50.125502 1.082321 0.000000 0.000000 0.000000 -3.793084 0.814641 21.438176 -18.152862 -28.352455 -4.621638 -10.576105 0.637337 -15.438088 0.000000 0.000000 0.000000 7.125000 0.000000 0.000000 11.471191 14.503651 8.405740
